<?xml version="1.0" encoding="utf-8"?>
<svg xmlns="http://www.w3.org/2000/svg" viewBox="-250 -190 480 380" width="1024" height="1024">
  <polygon points="-104.41 116.187 20.803 188.48 20.803 156.072 -104.41 83.779" fill="#1C1C2E" stroke="#0B091D" stroke-width="2.0" stroke-linejoin="round" style=""/>
  <polygon points="146.019 116.187 20.803 188.48 20.803 156.072 146.019 83.779" fill="#33334A" stroke="#0B091D" stroke-width="2.0" stroke-linejoin="round" style=""/>
  <polygon points="20.803 11.487 146.019 83.779 20.803 156.072 -104.41 83.779" fill="#4B4B63" stroke="#0B091D" stroke-width="2.0" stroke-linejoin="round" style=""/>
  <polygon points="7.852 23.951 20.803 31.43 20.803 -155.53 7.852 -163.02" fill="#1C1C2E" stroke="#0B091D" stroke-width="1.4" stroke-linejoin="round" style=""/>
  <polygon points="33.753 23.951 20.803 31.43 20.803 -155.53 33.753 -163.02" fill="#3F3F56" stroke="#0B091D" stroke-width="1.4" stroke-linejoin="round" style=""/>
  <polygon points="20.803 -170.5 33.753 -163.02 20.803 -155.53 7.852 -163.02" fill="#63657E" stroke="#0B091D" stroke-width="1.4" stroke-linejoin="round" style=""/>
  <polygon points="109.312 82.534 122.274 90.012 122.274 -96.946 109.312 -104.43" fill="#1C1C2E" stroke="#0B091D" stroke-width="1.4" stroke-linejoin="round" style=""/>
  <polygon points="135.226 82.534 122.274 90.012 122.274 -96.946 135.226 -104.43" fill="#3F3F56" stroke="#0B091D" stroke-width="1.4" stroke-linejoin="round" style=""/>
  <polygon points="122.274 -111.91 135.226 -104.43 122.274 -96.946 109.312 -104.43" fill="#63657E" stroke="#0B091D" stroke-width="1.4" stroke-linejoin="round" style=""/>
  <polygon points="-39.649 108.709 -26.698 116.187 -26.698 -70.777 -39.649 -78.256" fill="#1C1C2E" stroke="#0B091D" stroke-width="1.4" stroke-linejoin="round" style=""/>
  <polygon points="-13.736 108.709 -26.698 116.187 -26.698 -70.777 -13.736 -78.256" fill="#3F3F56" stroke="#0B091D" stroke-width="1.4" stroke-linejoin="round" style=""/>
  <polygon points="-26.698 -85.737 -13.736 -78.256 -26.698 -70.777 -39.649 -78.256" fill="#63657E" stroke="#0B091D" stroke-width="1.4" stroke-linejoin="round" style=""/>
  <polygon points="-95.776 -103.18 20.803 -35.877 20.803 -53.328 -95.776 -120.64" fill="#1C1C2E" stroke="#0B091D" stroke-width="1.6" stroke-linejoin="round" style=""/>
  <polygon points="137.382 -103.18 20.803 -35.877 20.803 -53.328 137.382 -120.64" fill="#3F3F56" stroke="#0B091D" stroke-width="1.6" stroke-linejoin="round" style=""/>
  <polygon points="20.803 -187.94 137.382 -120.64 20.803 -53.328 -95.776 -120.64" fill="#63657E" stroke="#0B091D" stroke-width="1.6" stroke-linejoin="round" style=""/>
  <polygon points="-5.098 11.487 20.803 26.444 20.803 11.487 -5.098 -3.471" fill="#1C1C2E" stroke="#0B091D" stroke-width="1.4" stroke-linejoin="round" style=""/>
  <polygon points="46.703 11.487 20.803 26.444 20.803 11.487 46.703 -3.471" fill="#3F3F56" stroke="#0B091D" stroke-width="1.4" stroke-linejoin="round" style=""/>
  <polygon points="20.803 -18.428 46.703 -3.471 20.803 11.487 -5.098 -3.471" fill="#63657E" stroke="#0B091D" stroke-width="1.4" stroke-linejoin="round" style=""/>
  <polygon points="17.562 9.618 24.044 13.357 20.803 26.444" fill="#e94f37" style=""/>
</svg>