<?xml version="1.0" encoding="utf-8"?>
<svg xmlns="http://www.w3.org/2000/svg" viewBox="-250 -190 480 380" width="1024" height="1024">
  <polygon points="-103.98 115.961 20.875 188.047 20.875 155.732 -103.98 83.648" fill="#1C1C2E" stroke="#0B091D" stroke-width="2.0" stroke-linejoin="round" style=""/>
  <polygon points="145.732 115.961 20.875 188.047 20.875 155.732 145.732 83.648" fill="#33334A" stroke="#0B091D" stroke-width="2.0" stroke-linejoin="round" style=""/>
  <polygon points="20.875 11.562 145.732 83.648 20.875 155.732 -103.98 83.648" fill="#4B4B63" stroke="#0B091D" stroke-width="2.0" stroke-linejoin="round" style=""/>
  <polygon points="7.961 23.99 20.875 31.447 20.875 -154.98 7.961 -162.43" fill="#1C1C2E" stroke="#0B091D" stroke-width="1.4" stroke-linejoin="round" style=""/>
  <polygon points="33.788 23.99 20.875 31.447 20.875 -154.98 33.788 -162.43" fill="#3F3F56" stroke="#0B091D" stroke-width="1.4" stroke-linejoin="round" style=""/>
  <polygon points="20.875 -169.9 33.788 -162.43 20.875 -154.98 7.961 -162.43" fill="#63657E" stroke="#0B091D" stroke-width="1.4" stroke-linejoin="round" style=""/>
  <polygon points="109.13 82.404 122.055 89.861 122.055 -96.561 109.13 -104.02" fill="#1C1C2E" stroke="#0B091D" stroke-width="1.4" stroke-linejoin="round" style=""/>
  <polygon points="134.968 82.404 122.055 89.861 122.055 -96.561 134.968 -104.02" fill="#3F3F56" stroke="#0B091D" stroke-width="1.4" stroke-linejoin="round" style=""/>
  <polygon points="122.055 -111.47 134.968 -104.02 122.055 -96.561 109.13 -104.02" fill="#63657E" stroke="#0B091D" stroke-width="1.4" stroke-linejoin="round" style=""/>
  <polygon points="-39.404 108.504 -26.491 115.961 -26.491 -70.466 -39.404 -77.923" fill="#1C1C2E" stroke="#0B091D" stroke-width="1.4" stroke-linejoin="round" style=""/>
  <polygon points="-13.565 108.504 -26.491 115.961 -26.491 -70.466 -13.565 -77.923" fill="#3F3F56" stroke="#0B091D" stroke-width="1.4" stroke-linejoin="round" style=""/>
  <polygon points="-26.491 -85.385 -13.565 -77.923 -26.491 -70.466 -39.404 -77.923" fill="#63657E" stroke="#0B091D" stroke-width="1.4" stroke-linejoin="round" style=""/>
  <polygon points="-95.369 -102.78 20.875 -35.666 20.875 -53.067 -95.369 -120.18" fill="#1C1C2E" stroke="#0B091D" stroke-width="1.6" stroke-linejoin="round" style=""/>
  <polygon points="137.119 -102.78 20.875 -35.666 20.875 -53.067 137.119 -120.18" fill="#3F3F56" stroke="#0B091D" stroke-width="1.6" stroke-linejoin="round" style=""/>
  <polygon points="20.875 -187.29 137.119 -120.18 20.875 -53.067 -95.369 -120.18" fill="#63657E" stroke="#0B091D" stroke-width="1.6" stroke-linejoin="round" style=""/>
  <polygon points="-4.952 11.562 20.875 26.476 20.875 11.562 -4.952 -3.352" fill="#1C1C2E" stroke="#0B091D" stroke-width="1.4" stroke-linejoin="round" style=""/>
  <polygon points="46.701 11.562 20.875 26.476 20.875 11.562 46.701 -3.352" fill="#3F3F56" stroke="#0B091D" stroke-width="1.4" stroke-linejoin="round" style=""/>
  <polygon points="20.875 -18.267 46.701 -3.352 20.875 11.562 -4.952 -3.352" fill="#63657E" stroke="#0B091D" stroke-width="1.4" stroke-linejoin="round" style=""/>
  <polygon points="17.643 9.698 24.106 13.426 20.875 26.476" fill="#e94f37" style=""/>
  <polygon points="20.875 11.562 145.732 83.648 145.732 -102.78 20.875 -174.87" fill="#5C5D78" fill-opacity="0.14" stroke="#9092AC" stroke-width="1.5" stroke-linejoin="round" style=""/>
</svg>